<svg xmlns="http://www.w3.org/2000/svg" style="display: none;">
  <!-- Basic icons -->
  <symbol id="icon-server" viewBox="0 0 24 24">
    <rect width="20" height="8" x="2" y="2" rx="2" ry="2"/>
    <rect width="20" height="8" x="2" y="14" rx="2" ry="2"/>
    <line x1="6" x2="6.01" y1="6" y2="6"/>
    <line x1="6" x2="6.01" y1="18" y2="18"/>
  </symbol>
  
  <symbol id="icon-activity" viewBox="0 0 24 24">
    <polyline points="22 12 18 12 15 21 9 3 6 12 2 12"/>
  </symbol>
  
  <symbol id="icon-square" viewBox="0 0 24 24">
    <rect width="18" height="18" x="3" y="3" rx="2"/>
  </symbol>
  
  <symbol id="icon-alertCircle" viewBox="0 0 24 24">
    <circle cx="12" cy="12" r="10"/>
    <line x1="12" x2="12" y1="8" y2="12"/>
    <line x1="12" x2="12.01" y1="16" y2="16"/>
  </symbol>
  
  <symbol id="icon-terminal" viewBox="0 0 24 24">
    <polyline points="4 17 10 11 4 5"/>
    <line x1="12" y1="19" x2="20" y2="19"/>
  </symbol>
  
  <!-- Resource icons -->
  <symbol id="icon-cpu" viewBox="0 0 24 24">
    <rect x="4" y="4" width="16" height="16" rx="2" ry="2"/>
    <rect x="9" y="9" width="6" height="6"/>
    <line x1="9" y1="1" x2="9" y2="4"/>
    <line x1="15" y1="1" x2="15" y2="4"/>
    <line x1="9" y1="20" x2="9" y2="23"/>
    <line x1="15" y1="20" x2="15" y2="23"/>
    <line x1="20" y1="9" x2="23" y2="9"/>
    <line x1="20" y1="14" x2="23" y2="14"/>
    <line x1="1" y1="9" x2="4" y2="9"/>
    <line x1="1" y1="14" x2="4" y2="14"/>
  </symbol>
  
  <symbol id="icon-hardDrive" viewBox="0 0 24 24">
    <line x1="22" y1="12" x2="2" y2="12"/>
    <path d="M5.45 5.11L2 12v6a2 2 0 0 0 2 2h16a2 2 0 0 0 2-2v-6l-3.45-6.89A2 2 0 0 0 16.76 4H7.24a2 2 0 0 0-1.79 1.11z"/>
    <line x1="6" y1="16" x2="6.01" y2="16"/>
    <line x1="10" y1="16" x2="10.01" y2="16"/>
  </symbol>
  
  <symbol id="icon-clock" viewBox="0 0 24 24">
    <circle cx="12" cy="12" r="10"/>
    <polyline points="12 6 12 12 16 14"/>
  </symbol>
  
  <!-- Action icons -->
  <symbol id="icon-play" viewBox="0 0 24 24">
    <polygon points="5 3 19 12 5 21 5 3"/>
  </symbol>
  
  <symbol id="icon-rotateCw" viewBox="0 0 24 24">
    <path d="M21 12a9 9 0 1 1-9-9c2.52 0 4.93 1 6.74 2.74L21 8"/>
    <path d="M21 3v5h-5"/>
  </symbol>
  
  <symbol id="icon-trash2" viewBox="0 0 24 24">
    <path d="M3 6h18"/>
    <path d="M19 6v14c0 1-1 2-2 2H7c-1 0-2-1-2-2V6"/>
    <path d="M8 6V4c0-1 1-2 2-2h4c1 0 2 1 2 2v2"/>
    <line x1="10" y1="11" x2="10" y2="17"/>
    <line x1="14" y1="11" x2="14" y2="17"/>
  </symbol>
  
  <symbol id="icon-fileText" viewBox="0 0 24 24">
    <path d="M14.5 2H6a2 2 0 0 0-2 2v16a2 2 0 0 0 2 2h12a2 2 0 0 0 2-2V7.5L14.5 2z"/>
    <polyline points="14 2 14 8 20 8"/>
    <line x1="16" y1="13" x2="8" y2="13"/>
    <line x1="16" y1="17" x2="8" y2="17"/>
    <line x1="10" y1="9" x2="8" y2="9"/>
  </symbol>
  
  <symbol id="icon-plus" viewBox="0 0 24 24">
    <line x1="12" y1="5" x2="12" y2="19"/>
    <line x1="5" y1="12" x2="19" y2="12"/>
  </symbol>
  
  <symbol id="icon-refreshCw" viewBox="0 0 24 24">
    <path d="M21 12a9 9 0 1 1-9-9c2.52 0 4.93 1 6.74 2.74L21 8"/>
    <path d="M21 3v5h-5"/>
  </symbol>
  
  <!-- UI icons -->
  <symbol id="icon-info" viewBox="0 0 24 24">
    <circle cx="12" cy="12" r="10"/>
    <line x1="12" x2="12" y1="16" y2="12"/>
    <line x1="12" x2="12.01" y1="8" y2="8"/>
  </symbol>
  
  <symbol id="icon-settings" viewBox="0 0 24 24">
    <circle cx="12" cy="12" r="3"/>
    <path d="M19.4 15a1.65 1.65 0 0 0 .33 1.82l.06.06a2 2 0 0 1 0 2.83 2 2 0 0 1-2.83 0l-.06-.06a1.65 1.65 0 0 0-1.82-.33 1.65 1.65 0 0 0-1 1.51V21a2 2 0 0 1-2 2 2 2 0 0 1-2-2v-.09A1.65 1.65 0 0 0 9 19.4a1.65 1.65 0 0 0-1.82.33l-.06.06a2 2 0 0 1-2.83 0 2 2 0 0 1 0-2.83l.06-.06a1.65 1.65 0 0 0 .33-1.82 1.65 1.65 0 0 0-1.51-1H3a2 2 0 0 1-2-2 2 2 0 0 1 2-2h.09A1.65 1.65 0 0 0 4.6 9a1.65 1.65 0 0 0-.33-1.82l-.06-.06a2 2 0 0 1 0-2.83 2 2 0 0 1 2.83 0l.06.06a1.65 1.65 0 0 0 1.82.33H9a1.65 1.65 0 0 0 1-1.51V3a2 2 0 0 1 2-2 2 2 0 0 1 2 2v.09a1.65 1.65 0 0 0 1 1.51 1.65 1.65 0 0 0 1.82-.33l.06-.06a2 2 0 0 1 2.83 0 2 2 0 0 1 0 2.83l-.06.06a1.65 1.65 0 0 0-.33 1.82V9a1.65 1.65 0 0 0 1.51 1H21a2 2 0 0 1 2 2 2 2 0 0 1-2 2h-.09a1.65 1.65 0 0 0-1.51 1z"/>
  </symbol>
  
  <symbol id="icon-fileJson" viewBox="0 0 24 24">
    <path d="M14.5 2H6a2 2 0 0 0-2 2v16a2 2 0 0 0 2 2h12a2 2 0 0 0 2-2V7.5L14.5 2z"/>
    <polyline points="14 2 14 8 20 8"/>
  </symbol>
  
  <symbol id="icon-zap" viewBox="0 0 24 24">
    <polygon points="13 2 3 14 12 14 11 22 21 10 12 10 13 2"/>
  </symbol>
  
  <symbol id="icon-folder" viewBox="0 0 24 24">
    <path d="M20 20a2 2 0 0 0 2-2V8a2 2 0 0 0-2-2h-7.9a2 2 0 0 1-1.69-.9L9.6 3.9A2 2 0 0 0 7.93 3H4a2 2 0 0 0-2 2v13a2 2 0 0 0 2 2Z"/>
  </symbol>
  
  <symbol id="icon-file" viewBox="0 0 24 24">
    <path d="M15 2H6a2 2 0 0 0-2 2v16a2 2 0 0 0 2 2h12a2 2 0 0 0 2-2V7Z"/>
    <path d="M14 2v4a2 2 0 0 0 2 2h4"/>
  </symbol>
  
  <symbol id="icon-layers" viewBox="0 0 24 24">
    <polygon points="12 2 2 7 12 12 22 7 12 2"/>
    <polyline points="2 17 12 22 22 17"/>
    <polyline points="2 12 12 17 22 12"/>
  </symbol>
  
  <symbol id="icon-eye" viewBox="0 0 24 24">
    <path d="M2 12s3-7 10-7 10 7 10 7-3 7-10 7-10-7-10-7Z"/>
    <circle cx="12" cy="12" r="3"/>
  </symbol>
  
  <symbol id="icon-x" viewBox="0 0 24 24">
    <line x1="18" y1="6" x2="6" y2="18"/>
    <line x1="6" y1="6" x2="18" y2="18"/>
  </symbol>
  
  <symbol id="icon-check" viewBox="0 0 24 24">
    <polyline points="20 6 9 17 4 12"/>
  </symbol>
  
  <symbol id="icon-minus" viewBox="0 0 24 24">
    <line x1="5" y1="12" x2="19" y2="12"/>
  </symbol>

  <!-- Sun/Moon for theme toggle -->
  <symbol id="icon-sun" viewBox="0 0 24 24">
    <circle cx="12" cy="12" r="4"/>
    <path d="M12 2v2"/>
    <path d="M12 20v2"/>
    <path d="m4.93 4.93 1.41 1.41"/>
    <path d="m17.66 17.66 1.41 1.41"/>
    <path d="M2 12h2"/>
    <path d="M20 12h2"/>
    <path d="m6.34 17.66-1.41 1.41"/>
    <path d="m19.07 4.93-1.41 1.41"/>
  </symbol>

  <symbol id="icon-moon" viewBox="0 0 24 24">
    <path d="M12 3a6 6 0 0 0 9 9 9 9 0 1 1-9-9Z"/>
  </symbol>

  <symbol id="icon-pause" viewBox="0 0 24 24">
    <rect x="6" y="4" width="4" height="16"/>
    <rect x="14" y="4" width="4" height="16"/>
  </symbol>

  <symbol id="icon-github" viewBox="0 0 24 24">
    <path d="M9 19c-5 1.5-5-2.5-7-3m14 6v-3.87a3.37 3.37 0 0 0-.94-2.61c3.14-.35 6.44-1.54 6.44-7A5.44 5.44 0 0 0 20 4.77 5.07 5.07 0 0 0 19.91 1S18.73.65 16 2.48a13.38 13.38 0 0 0-7 0C6.27.65 5.09 1 5.09 1A5.07 5.07 0 0 0 5 4.77a5.44 5.44 0 0 0-1.5 3.78c0 5.42 3.3 6.61 6.44 7A3.37 3.37 0 0 0 9 18.13V22"/>
  </symbol>
</svg>